<svg width="233" height="137" viewBox="0 0 233 137" fill="none" xmlns="http://www.w3.org/2000/svg">
<rect x="16" y="47" width="200" height="90" rx="22" fill="#4F7CFE"/>
<rect y="72" width="233" height="40" rx="10" fill="#4F7CFE"/>
<path d="M6.02273 80.7273H12.0909L18.5 96.3636H18.7727L25.1818 80.7273H31.25V104H26.4773V88.8523H26.2841L20.2614 103.886H17.0114L10.9886 88.7955H10.7955V104H6.02273V80.7273ZM39.3153 104H34.0426L42.0767 80.7273H48.4176L56.4403 104H51.1676L45.3381 86.0455H45.1562L39.3153 104ZM38.9858 94.8523H51.4403V98.6932H38.9858V94.8523ZM75.8324 88.25C75.7718 87.697 75.643 87.2083 75.446 86.7841C75.2566 86.3523 74.9953 85.9886 74.6619 85.6932C74.3286 85.3902 73.9233 85.1591 73.446 85C72.9688 84.8409 72.4157 84.7614 71.7869 84.7614C70.5975 84.7614 69.4839 85.0568 68.446 85.6477C67.4157 86.2386 66.5369 87.0985 65.8097 88.2273C65.0824 89.3485 64.5862 90.7197 64.321 92.3409C64.0483 93.9621 64.0483 95.3409 64.321 96.4773C64.6013 97.6136 65.1278 98.4811 65.9006 99.0795C66.6809 99.6705 67.6847 99.9659 68.9119 99.9659C70.0256 99.9659 71.0256 99.7689 71.9119 99.375C72.7983 98.9735 73.5218 98.4091 74.0824 97.6818C74.6506 96.9545 75.0142 96.0947 75.1733 95.1023L76.1506 95.25H70.1619L70.7756 91.5455H80.5142L80.0142 94.4773C79.6884 96.5227 78.9725 98.2803 77.8665 99.75C76.7604 101.22 75.3816 102.348 73.7301 103.136C72.0862 103.924 70.2831 104.318 68.321 104.318C66.1392 104.318 64.3021 103.837 62.8097 102.875C61.3248 101.905 60.268 100.53 59.6392 98.75C59.018 96.9621 58.9081 94.8409 59.3097 92.3864C59.6203 90.5 60.1733 88.8182 60.9688 87.3409C61.7718 85.8561 62.7528 84.5985 63.9119 83.5682C65.071 82.5379 66.3551 81.7538 67.7642 81.2159C69.1809 80.678 70.6544 80.4091 72.1847 80.4091C73.5028 80.4091 74.696 80.6023 75.7642 80.9886C76.84 81.3674 77.7604 81.9053 78.5256 82.6023C79.2983 83.2992 79.8816 84.1288 80.2756 85.0909C80.6771 86.0455 80.8627 87.0985 80.8324 88.25H75.8324ZM105.403 92.6818C104.979 95.1667 104.157 97.2765 102.938 99.0114C101.725 100.746 100.244 102.064 98.4943 102.966C96.7519 103.867 94.8731 104.318 92.858 104.318C90.7443 104.318 88.9223 103.837 87.392 102.875C85.8693 101.913 84.767 100.523 84.0852 98.7045C83.4034 96.8788 83.2746 94.678 83.6989 92.1023C84.108 89.6098 84.9223 87.4962 86.142 85.7614C87.3617 84.0189 88.8504 82.6932 90.608 81.7841C92.3655 80.8674 94.2557 80.4091 96.2784 80.4091C98.3769 80.4091 100.188 80.8939 101.71 81.8636C103.241 82.8333 104.343 84.2348 105.017 86.0682C105.699 87.8939 105.828 90.0985 105.403 92.6818ZM100.506 92.1023C100.771 90.5038 100.759 89.1629 100.472 88.0795C100.191 86.9886 99.6761 86.1629 98.9261 85.6023C98.1761 85.0417 97.2292 84.7614 96.0852 84.7614C94.8428 84.7614 93.7027 85.072 92.6648 85.6932C91.6345 86.3144 90.7633 87.2159 90.0511 88.3977C89.3466 89.572 88.858 91 88.5852 92.6818C88.3125 94.2879 88.3201 95.6288 88.608 96.7045C88.9034 97.7803 89.4299 98.5947 90.1875 99.1477C90.9527 99.6932 91.9034 99.9659 93.0398 99.9659C94.2746 99.9659 95.4034 99.6629 96.4261 99.0568C97.4564 98.4432 98.3239 97.553 99.0284 96.3864C99.733 95.2121 100.225 93.7841 100.506 92.1023ZM113.537 80.7273V104H108.616V80.7273H113.537ZM122.335 93.9091V104H117.494V86.5455H122.108V89.625H122.312C122.699 88.6098 123.347 87.8068 124.256 87.2159C125.165 86.6174 126.267 86.3182 127.562 86.3182C128.775 86.3182 129.831 86.5833 130.733 87.1136C131.634 87.6439 132.335 88.4015 132.835 89.3864C133.335 90.3636 133.585 91.5303 133.585 92.8864V104H128.744V93.75C128.752 92.6818 128.479 91.8485 127.926 91.25C127.373 90.6439 126.612 90.3409 125.642 90.3409C124.991 90.3409 124.415 90.4811 123.915 90.7614C123.422 91.0417 123.036 91.4508 122.756 91.9886C122.483 92.5189 122.343 93.1591 122.335 93.9091ZM146.685 86.5455V90.1818H136.173V86.5455H146.685ZM138.56 82.3636H143.401V98.6364C143.401 99.0833 143.469 99.4318 143.605 99.6818C143.741 99.9242 143.931 100.095 144.173 100.193C144.423 100.292 144.711 100.341 145.037 100.341C145.264 100.341 145.491 100.322 145.719 100.284C145.946 100.239 146.12 100.205 146.241 100.182L147.003 103.784C146.76 103.86 146.42 103.947 145.98 104.045C145.541 104.152 145.007 104.216 144.378 104.239C143.211 104.284 142.188 104.129 141.31 103.773C140.438 103.417 139.76 102.864 139.276 102.114C138.791 101.364 138.552 100.417 138.56 99.2727V82.3636ZM150.304 104V80.7273H165.986V84.7841H155.224V90.3295H165.179V94.3864H155.224V99.9432H166.031V104H150.304ZM174.511 80.7273L179.205 88.6591H179.386L184.102 80.7273H189.659L182.557 92.3636L189.818 104H184.159L179.386 96.0568H179.205L174.432 104H168.795L176.08 92.3636L168.932 80.7273H174.511ZM197.693 80.7273V104H192.773V80.7273H197.693ZM201.741 80.7273H207.81L214.219 96.3636H214.491L220.901 80.7273H226.969V104H222.196V88.8523H222.003L215.98 103.886H212.73L206.707 88.7955H206.514V104H201.741V80.7273Z" fill="white"/>
<path d="M31.5724 112.746C31.5327 112.345 31.362 112.034 31.0604 111.812C30.7588 111.59 30.3494 111.479 29.8324 111.479C29.4811 111.479 29.1844 111.528 28.9425 111.628C28.7005 111.724 28.5149 111.858 28.3857 112.031C28.2597 112.203 28.1967 112.398 28.1967 112.617C28.1901 112.799 28.2282 112.959 28.3111 113.094C28.3973 113.23 28.5149 113.348 28.6641 113.447C28.8132 113.544 28.9856 113.628 29.1811 113.701C29.3767 113.771 29.5855 113.83 29.8075 113.88L30.7223 114.099C31.1664 114.198 31.5741 114.331 31.9453 114.496C32.3165 114.662 32.638 114.866 32.9098 115.108C33.1816 115.35 33.392 115.635 33.5412 115.963C33.6937 116.291 33.7715 116.667 33.7749 117.092C33.7715 117.715 33.6125 118.255 33.2976 118.712C32.986 119.166 32.5353 119.519 31.9453 119.771C31.3587 120.02 30.651 120.144 29.8224 120.144C29.0005 120.144 28.2846 120.018 27.6747 119.766C27.0682 119.514 26.5942 119.142 26.2528 118.648C25.9148 118.151 25.7375 117.536 25.7209 116.803H27.804C27.8272 117.145 27.925 117.43 28.0973 117.658C28.273 117.884 28.5066 118.054 28.7983 118.17C29.0933 118.283 29.4264 118.339 29.7976 118.339C30.1622 118.339 30.4787 118.286 30.7472 118.18C31.0189 118.074 31.2294 117.927 31.3786 117.738C31.5277 117.549 31.6023 117.332 31.6023 117.087C31.6023 116.858 31.5343 116.666 31.3984 116.51C31.2659 116.354 31.0703 116.222 30.8118 116.112C30.5566 116.003 30.2434 115.903 29.8722 115.814L28.7635 115.536C27.9051 115.327 27.2273 115 26.7301 114.556C26.233 114.112 25.986 113.514 25.9893 112.761C25.986 112.145 26.1501 111.606 26.4815 111.146C26.8163 110.685 27.2753 110.325 27.8587 110.067C28.442 109.808 29.1049 109.679 29.8473 109.679C30.603 109.679 31.2625 109.808 31.826 110.067C32.3928 110.325 32.8336 110.685 33.1484 111.146C33.4633 111.606 33.6257 112.14 33.6357 112.746H31.5724ZM38.6333 120.149C37.8611 120.149 37.1932 119.985 36.6298 119.657C36.0697 119.326 35.6371 118.865 35.3322 118.275C35.0273 117.682 34.8748 116.994 34.8748 116.212C34.8748 115.423 35.0273 114.733 35.3322 114.143C35.6371 113.55 36.0697 113.089 36.6298 112.761C37.1932 112.43 37.8611 112.264 38.6333 112.264C39.4056 112.264 40.0718 112.43 40.6319 112.761C41.1954 113.089 41.6296 113.55 41.9345 114.143C42.2394 114.733 42.3919 115.423 42.3919 116.212C42.3919 116.994 42.2394 117.682 41.9345 118.275C41.6296 118.865 41.1954 119.326 40.6319 119.657C40.0718 119.985 39.4056 120.149 38.6333 120.149ZM38.6433 118.509C38.9946 118.509 39.2879 118.409 39.5233 118.21C39.7586 118.008 39.9359 117.733 40.0552 117.385C40.1779 117.037 40.2392 116.641 40.2392 116.197C40.2392 115.753 40.1779 115.357 40.0552 115.009C39.9359 114.661 39.7586 114.385 39.5233 114.183C39.2879 113.981 38.9946 113.88 38.6433 113.88C38.2886 113.88 37.9904 113.981 37.7484 114.183C37.5098 114.385 37.3291 114.661 37.2065 115.009C37.0872 115.357 37.0275 115.753 37.0275 116.197C37.0275 116.641 37.0872 117.037 37.2065 117.385C37.3291 117.733 37.5098 118.008 37.7484 118.21C37.9904 118.409 38.2886 118.509 38.6433 118.509ZM43.769 120V112.364H45.7875V113.711H45.877C46.036 113.263 46.3012 112.911 46.6724 112.652C47.0436 112.393 47.4877 112.264 48.0048 112.264C48.5285 112.264 48.9743 112.395 49.3422 112.657C49.7101 112.915 49.9553 113.267 50.0779 113.711H50.1575C50.3133 113.273 50.595 112.924 51.0027 112.662C51.4136 112.397 51.8992 112.264 52.4593 112.264C53.1719 112.264 53.7503 112.491 54.1944 112.945C54.6419 113.396 54.8656 114.036 54.8656 114.864V120H52.7527V115.282C52.7527 114.858 52.64 114.54 52.4146 114.327C52.1892 114.115 51.9075 114.009 51.5694 114.009C51.185 114.009 50.885 114.132 50.6696 114.377C50.4541 114.619 50.3464 114.939 50.3464 115.337V120H48.2931V115.237C48.2931 114.863 48.1854 114.564 47.97 114.342C47.7579 114.12 47.4778 114.009 47.1298 114.009C46.8945 114.009 46.6824 114.069 46.4934 114.188C46.3078 114.304 46.1603 114.468 46.051 114.68C45.9416 114.889 45.8869 115.134 45.8869 115.416V120H43.769ZM60.0186 120.149C59.2331 120.149 58.557 119.99 57.9902 119.672C57.4268 119.35 56.9926 118.896 56.6877 118.31C56.3828 117.72 56.2303 117.022 56.2303 116.217C56.2303 115.431 56.3828 114.742 56.6877 114.148C56.9926 113.555 57.4218 113.093 57.9753 112.761C58.5321 112.43 59.1851 112.264 59.9341 112.264C60.4379 112.264 60.9069 112.345 61.3411 112.508C61.7786 112.667 62.1597 112.907 62.4846 113.229C62.8127 113.55 63.0679 113.955 63.2502 114.442C63.4325 114.926 63.5236 115.492 63.5236 116.142V116.724H57.0755V115.411H61.53C61.53 115.106 61.4637 114.836 61.3311 114.601C61.1986 114.366 61.0146 114.182 60.7793 114.049C60.5473 113.913 60.2772 113.845 59.9689 113.845C59.6474 113.845 59.3624 113.92 59.1138 114.069C58.8685 114.215 58.6763 114.412 58.5371 114.661C58.3979 114.906 58.3266 115.179 58.3233 115.481V116.729C58.3233 117.107 58.3929 117.433 58.5321 117.708C58.6747 117.983 58.8752 118.195 59.1337 118.344C59.3922 118.494 59.6988 118.568 60.0534 118.568C60.2888 118.568 60.5042 118.535 60.6998 118.469C60.8953 118.402 61.0627 118.303 61.2019 118.17C61.3411 118.038 61.4471 117.875 61.5201 117.683L63.4789 117.812C63.3794 118.283 63.1756 118.694 62.8674 119.045C62.5624 119.393 62.168 119.665 61.6841 119.861C61.2035 120.053 60.6484 120.149 60.0186 120.149ZM68.9675 112.364V113.955H64.3688V112.364H68.9675ZM65.4128 110.534H67.5307V117.653C67.5307 117.849 67.5605 118.001 67.6202 118.111C67.6799 118.217 67.7627 118.291 67.8688 118.335C67.9782 118.378 68.1041 118.399 68.2466 118.399C68.3461 118.399 68.4455 118.391 68.5449 118.374C68.6444 118.354 68.7206 118.339 68.7736 118.33L69.1067 119.906C69.0007 119.939 68.8515 119.977 68.6593 120.02C68.467 120.066 68.2334 120.094 67.9583 120.104C67.4479 120.124 67.0004 120.056 66.6159 119.901C66.2348 119.745 65.9382 119.503 65.726 119.175C65.5139 118.847 65.4095 118.432 65.4128 117.932V110.534ZM72.6291 115.585V120H70.5112V109.818H72.5694V113.711H72.6589C72.8313 113.26 73.1097 112.907 73.4941 112.652C73.8786 112.393 74.3609 112.264 74.9409 112.264C75.4712 112.264 75.9335 112.38 76.3279 112.612C76.7257 112.841 77.0339 113.171 77.2527 113.602C77.4747 114.029 77.5841 114.541 77.5808 115.138V120H75.4629V115.516C75.4662 115.045 75.3469 114.679 75.1049 114.417C74.8663 114.155 74.5315 114.024 74.1007 114.024C73.8123 114.024 73.5571 114.085 73.335 114.208C73.1163 114.331 72.944 114.51 72.818 114.745C72.6954 114.977 72.6324 115.257 72.6291 115.585ZM79.2475 120V112.364H81.3654V120H79.2475ZM80.3114 111.379C79.9966 111.379 79.7264 111.275 79.5011 111.066C79.279 110.854 79.168 110.6 79.168 110.305C79.168 110.014 79.279 109.763 79.5011 109.555C79.7264 109.343 79.9966 109.237 80.3114 109.237C80.6263 109.237 80.8948 109.343 81.1168 109.555C81.3422 109.763 81.4549 110.014 81.4549 110.305C81.4549 110.6 81.3422 110.854 81.1168 111.066C80.8948 111.275 80.6263 111.379 80.3114 111.379ZM85.1799 115.585V120H83.062V112.364H85.0804V113.711H85.1699C85.339 113.267 85.6223 112.915 86.0201 112.657C86.4178 112.395 86.9 112.264 87.4668 112.264C87.9971 112.264 88.4595 112.38 88.8539 112.612C89.2483 112.844 89.5549 113.176 89.7736 113.607C89.9924 114.034 90.1017 114.545 90.1017 115.138V120H87.9838V115.516C87.9872 115.048 87.8678 114.684 87.6259 114.422C87.3839 114.157 87.0508 114.024 86.6266 114.024C86.3416 114.024 86.0897 114.085 85.8709 114.208C85.6555 114.331 85.4864 114.51 85.3638 114.745C85.2445 114.977 85.1832 115.257 85.1799 115.585ZM95.2113 123.023C94.5252 123.023 93.9369 122.928 93.4464 122.739C92.9592 122.554 92.5714 122.3 92.283 121.979C91.9947 121.657 91.8074 121.296 91.7212 120.895L93.68 120.631C93.7397 120.784 93.8342 120.926 93.9634 121.059C94.0927 121.192 94.2634 121.298 94.4755 121.377C94.6909 121.46 94.9528 121.501 95.261 121.501C95.7217 121.501 96.1012 121.389 96.3995 121.163C96.7011 120.941 96.8519 120.568 96.8519 120.045V118.648H96.7624C96.6696 118.86 96.5304 119.06 96.3448 119.249C96.1592 119.438 95.9206 119.592 95.6289 119.712C95.3372 119.831 94.9892 119.891 94.5849 119.891C94.0115 119.891 93.4895 119.758 93.0188 119.493C92.5515 119.224 92.1786 118.815 91.9002 118.265C91.6251 117.711 91.4876 117.012 91.4876 116.167C91.4876 115.302 91.6284 114.579 91.9102 113.999C92.1919 113.419 92.5664 112.985 93.0337 112.697C93.5044 112.408 94.0198 112.264 94.5799 112.264C95.0075 112.264 95.3654 112.337 95.6538 112.483C95.9421 112.625 96.1741 112.804 96.3498 113.02C96.5288 113.232 96.6663 113.441 96.7624 113.646H96.842V112.364H98.945V120.075C98.945 120.724 98.7859 121.268 98.4677 121.705C98.1495 122.143 97.7087 122.471 97.1452 122.69C96.5851 122.912 95.9405 123.023 95.2113 123.023ZM95.256 118.3C95.5974 118.3 95.8858 118.215 96.1211 118.046C96.3597 117.874 96.542 117.629 96.668 117.31C96.7972 116.989 96.8619 116.604 96.8619 116.157C96.8619 115.71 96.7989 115.322 96.6729 114.994C96.547 114.662 96.3647 114.405 96.1261 114.223C95.8874 114.041 95.5974 113.95 95.256 113.95C94.908 113.95 94.6147 114.044 94.3761 114.233C94.1374 114.419 93.9568 114.677 93.8342 115.009C93.7115 115.34 93.6502 115.723 93.6502 116.157C93.6502 116.598 93.7115 116.979 93.8342 117.3C93.9601 117.619 94.1407 117.866 94.3761 118.041C94.6147 118.214 94.908 118.3 95.256 118.3ZM103.91 120V109.818H106.028V113.646H106.093C106.186 113.441 106.32 113.232 106.496 113.02C106.675 112.804 106.907 112.625 107.192 112.483C107.48 112.337 107.838 112.264 108.265 112.264C108.822 112.264 109.336 112.41 109.807 112.702C110.277 112.99 110.653 113.426 110.935 114.009C111.217 114.589 111.358 115.317 111.358 116.192C111.358 117.044 111.22 117.763 110.945 118.349C110.673 118.933 110.302 119.375 109.831 119.677C109.364 119.975 108.84 120.124 108.26 120.124C107.849 120.124 107.5 120.056 107.211 119.92C106.926 119.785 106.693 119.614 106.51 119.408C106.328 119.2 106.189 118.989 106.093 118.777H105.998V120H103.91ZM105.983 116.182C105.983 116.636 106.046 117.032 106.172 117.37C106.298 117.708 106.481 117.972 106.719 118.161C106.958 118.346 107.248 118.439 107.589 118.439C107.934 118.439 108.226 118.344 108.464 118.156C108.703 117.963 108.884 117.698 109.006 117.36C109.132 117.019 109.195 116.626 109.195 116.182C109.195 115.741 109.134 115.353 109.011 115.018C108.889 114.684 108.708 114.422 108.469 114.233C108.231 114.044 107.937 113.95 107.589 113.95C107.245 113.95 106.953 114.041 106.714 114.223C106.479 114.405 106.298 114.664 106.172 114.999C106.046 115.333 105.983 115.728 105.983 116.182ZM116.251 120.149C115.466 120.149 114.789 119.99 114.223 119.672C113.659 119.35 113.225 118.896 112.92 118.31C112.615 117.72 112.463 117.022 112.463 116.217C112.463 115.431 112.615 114.742 112.92 114.148C113.225 113.555 113.654 113.093 114.208 112.761C114.765 112.43 115.417 112.264 116.167 112.264C116.67 112.264 117.139 112.345 117.574 112.508C118.011 112.667 118.392 112.907 118.717 113.229C119.045 113.55 119.3 113.955 119.483 114.442C119.665 114.926 119.756 115.492 119.756 116.142V116.724H113.308V115.411H117.762C117.762 115.106 117.696 114.836 117.564 114.601C117.431 114.366 117.247 114.182 117.012 114.049C116.78 113.913 116.51 113.845 116.201 113.845C115.88 113.845 115.595 113.92 115.346 114.069C115.101 114.215 114.909 114.412 114.77 114.661C114.63 114.906 114.559 115.179 114.556 115.481V116.729C114.556 117.107 114.625 117.433 114.765 117.708C114.907 117.983 115.108 118.195 115.366 118.344C115.625 118.494 115.931 118.568 116.286 118.568C116.521 118.568 116.737 118.535 116.932 118.469C117.128 118.402 117.295 118.303 117.434 118.17C117.574 118.038 117.68 117.875 117.752 117.683L119.711 117.812C119.612 118.283 119.408 118.694 119.1 119.045C118.795 119.393 118.4 119.665 117.917 119.861C117.436 120.053 116.881 120.149 116.251 120.149ZM122.241 122.864C121.972 122.864 121.72 122.842 121.485 122.799C121.253 122.759 121.061 122.708 120.908 122.645L121.385 121.064C121.634 121.14 121.858 121.182 122.057 121.188C122.259 121.195 122.433 121.148 122.579 121.049C122.728 120.95 122.849 120.781 122.942 120.542L123.066 120.219L120.327 112.364H122.554L124.135 117.972H124.214L125.81 112.364H128.052L125.084 120.825C124.942 121.236 124.748 121.594 124.503 121.899C124.261 122.207 123.954 122.444 123.583 122.61C123.212 122.779 122.764 122.864 122.241 122.864ZM132.34 120.149C131.568 120.149 130.9 119.985 130.337 119.657C129.777 119.326 129.344 118.865 129.039 118.275C128.734 117.682 128.582 116.994 128.582 116.212C128.582 115.423 128.734 114.733 129.039 114.143C129.344 113.55 129.777 113.089 130.337 112.761C130.9 112.43 131.568 112.264 132.34 112.264C133.113 112.264 133.779 112.43 134.339 112.761C134.902 113.089 135.337 113.55 135.642 114.143C135.946 114.733 136.099 115.423 136.099 116.212C136.099 116.994 135.946 117.682 135.642 118.275C135.337 118.865 134.902 119.326 134.339 119.657C133.779 119.985 133.113 120.149 132.34 120.149ZM132.35 118.509C132.702 118.509 132.995 118.409 133.23 118.21C133.466 118.008 133.643 117.733 133.762 117.385C133.885 117.037 133.946 116.641 133.946 116.197C133.946 115.753 133.885 115.357 133.762 115.009C133.643 114.661 133.466 114.385 133.23 114.183C132.995 113.981 132.702 113.88 132.35 113.88C131.996 113.88 131.697 113.981 131.455 114.183C131.217 114.385 131.036 114.661 130.914 115.009C130.794 115.357 130.735 115.753 130.735 116.197C130.735 116.641 130.794 117.037 130.914 117.385C131.036 117.733 131.217 118.008 131.455 118.21C131.697 118.409 131.996 118.509 132.35 118.509ZM139.594 115.585V120H137.476V112.364H139.494V113.711H139.584C139.753 113.267 140.036 112.915 140.434 112.657C140.832 112.395 141.314 112.264 141.881 112.264C142.411 112.264 142.874 112.38 143.268 112.612C143.662 112.844 143.969 113.176 144.188 113.607C144.406 114.034 144.516 114.545 144.516 115.138V120H142.398V115.516C142.401 115.048 142.282 114.684 142.04 114.422C141.798 114.157 141.465 114.024 141.041 114.024C140.756 114.024 140.504 114.085 140.285 114.208C140.07 114.331 139.901 114.51 139.778 114.745C139.659 114.977 139.597 115.257 139.594 115.585ZM148.999 120.124C148.419 120.124 147.894 119.975 147.423 119.677C146.956 119.375 146.584 118.933 146.309 118.349C146.038 117.763 145.902 117.044 145.902 116.192C145.902 115.317 146.042 114.589 146.324 114.009C146.606 113.426 146.98 112.99 147.448 112.702C147.918 112.41 148.434 112.264 148.994 112.264C149.422 112.264 149.778 112.337 150.063 112.483C150.351 112.625 150.583 112.804 150.759 113.02C150.938 113.232 151.074 113.441 151.167 113.646H151.231V109.818H153.344V120H151.256V118.777H151.167C151.067 118.989 150.926 119.2 150.744 119.408C150.565 119.614 150.331 119.785 150.043 119.92C149.758 120.056 149.41 120.124 148.999 120.124ZM149.67 118.439C150.011 118.439 150.3 118.346 150.535 118.161C150.774 117.972 150.956 117.708 151.082 117.37C151.211 117.032 151.276 116.636 151.276 116.182C151.276 115.728 151.213 115.333 151.087 114.999C150.961 114.664 150.779 114.405 150.54 114.223C150.301 114.041 150.011 113.95 149.67 113.95C149.322 113.95 149.029 114.044 148.79 114.233C148.551 114.422 148.371 114.684 148.248 115.018C148.126 115.353 148.064 115.741 148.064 116.182C148.064 116.626 148.126 117.019 148.248 117.36C148.374 117.698 148.555 117.963 148.79 118.156C149.029 118.344 149.322 118.439 149.67 118.439ZM162.387 112.364V113.955H157.789V112.364H162.387ZM158.833 110.534H160.951V117.653C160.951 117.849 160.98 118.001 161.04 118.111C161.1 118.217 161.183 118.291 161.289 118.335C161.398 118.378 161.524 118.399 161.667 118.399C161.766 118.399 161.865 118.391 161.965 118.374C162.064 118.354 162.141 118.339 162.194 118.33L162.527 119.906C162.421 119.939 162.271 119.977 162.079 120.02C161.887 120.066 161.653 120.094 161.378 120.104C160.868 120.124 160.42 120.056 160.036 119.901C159.655 119.745 159.358 119.503 159.146 119.175C158.934 118.847 158.829 118.432 158.833 117.932V110.534ZM163.767 120V112.364H165.82V113.696H165.9C166.039 113.222 166.273 112.864 166.601 112.622C166.929 112.377 167.307 112.254 167.734 112.254C167.84 112.254 167.955 112.261 168.077 112.274C168.2 112.287 168.308 112.306 168.401 112.329V114.208C168.301 114.178 168.164 114.152 167.988 114.129C167.812 114.105 167.652 114.094 167.506 114.094C167.194 114.094 166.916 114.162 166.67 114.298C166.429 114.43 166.236 114.616 166.094 114.854C165.955 115.093 165.885 115.368 165.885 115.68V120H163.767ZM171.454 120.144C170.967 120.144 170.533 120.06 170.152 119.891C169.771 119.718 169.469 119.465 169.247 119.13C169.028 118.792 168.919 118.371 168.919 117.867C168.919 117.443 168.997 117.087 169.153 116.798C169.308 116.51 169.52 116.278 169.789 116.102C170.057 115.927 170.362 115.794 170.704 115.705C171.048 115.615 171.41 115.552 171.787 115.516C172.232 115.469 172.59 115.426 172.861 115.386C173.133 115.343 173.33 115.28 173.453 115.197C173.576 115.115 173.637 114.992 173.637 114.83V114.8C173.637 114.485 173.537 114.241 173.339 114.069C173.143 113.897 172.865 113.81 172.503 113.81C172.122 113.81 171.819 113.895 171.594 114.064C171.368 114.23 171.219 114.438 171.146 114.69L169.187 114.531C169.287 114.067 169.482 113.666 169.774 113.328C170.066 112.987 170.442 112.725 170.903 112.543C171.367 112.357 171.903 112.264 172.513 112.264C172.938 112.264 173.344 112.314 173.731 112.413C174.122 112.513 174.469 112.667 174.77 112.876C175.075 113.085 175.316 113.353 175.491 113.681C175.667 114.006 175.755 114.395 175.755 114.849V120H173.746V118.941H173.687C173.564 119.18 173.4 119.39 173.194 119.572C172.989 119.751 172.742 119.892 172.454 119.995C172.165 120.094 171.832 120.144 171.454 120.144ZM172.061 118.683C172.372 118.683 172.648 118.621 172.886 118.499C173.125 118.373 173.312 118.204 173.448 117.991C173.584 117.779 173.652 117.539 173.652 117.271V116.46C173.586 116.503 173.494 116.543 173.378 116.58C173.266 116.613 173.138 116.644 172.996 116.674C172.853 116.701 172.711 116.725 172.568 116.749C172.425 116.768 172.296 116.787 172.18 116.803C171.932 116.84 171.715 116.898 171.529 116.977C171.343 117.057 171.199 117.165 171.096 117.3C170.994 117.433 170.942 117.599 170.942 117.798C170.942 118.086 171.047 118.306 171.256 118.459C171.468 118.608 171.736 118.683 172.061 118.683ZM180.212 120.124C179.632 120.124 179.106 119.975 178.636 119.677C178.169 119.375 177.797 118.933 177.522 118.349C177.25 117.763 177.115 117.044 177.115 116.192C177.115 115.317 177.255 114.589 177.537 114.009C177.819 113.426 178.193 112.99 178.661 112.702C179.131 112.41 179.647 112.264 180.207 112.264C180.634 112.264 180.991 112.337 181.276 112.483C181.564 112.625 181.796 112.804 181.972 113.02C182.151 113.232 182.287 113.441 182.379 113.646H182.444V109.818H184.557V120H182.469V118.777H182.379C182.28 118.989 182.139 119.2 181.957 119.408C181.778 119.614 181.544 119.785 181.256 119.92C180.971 120.056 180.623 120.124 180.212 120.124ZM180.883 118.439C181.224 118.439 181.513 118.346 181.748 118.161C181.987 117.972 182.169 117.708 182.295 117.37C182.424 117.032 182.489 116.636 182.489 116.182C182.489 115.728 182.426 115.333 182.3 114.999C182.174 114.664 181.992 114.405 181.753 114.223C181.514 114.041 181.224 113.95 180.883 113.95C180.535 113.95 180.242 114.044 180.003 114.233C179.764 114.422 179.584 114.684 179.461 115.018C179.338 115.353 179.277 115.741 179.277 116.182C179.277 116.626 179.338 117.019 179.461 117.36C179.587 117.698 179.768 117.963 180.003 118.156C180.242 118.344 180.535 118.439 180.883 118.439ZM186.298 120V112.364H188.416V120H186.298ZM187.362 111.379C187.047 111.379 186.777 111.275 186.552 111.066C186.33 110.854 186.219 110.6 186.219 110.305C186.219 110.014 186.33 109.763 186.552 109.555C186.777 109.343 187.047 109.237 187.362 109.237C187.677 109.237 187.946 109.343 188.168 109.555C188.393 109.763 188.506 110.014 188.506 110.305C188.506 110.6 188.393 110.854 188.168 111.066C187.946 111.275 187.677 111.379 187.362 111.379ZM192.231 115.585V120H190.113V112.364H192.131V113.711H192.221C192.39 113.267 192.673 112.915 193.071 112.657C193.469 112.395 193.951 112.264 194.518 112.264C195.048 112.264 195.51 112.38 195.905 112.612C196.299 112.844 196.606 113.176 196.824 113.607C197.043 114.034 197.153 114.545 197.153 115.138V120H195.035V115.516C195.038 115.048 194.919 114.684 194.677 114.422C194.435 114.157 194.102 114.024 193.677 114.024C193.392 114.024 193.14 114.085 192.922 114.208C192.706 114.331 192.537 114.51 192.415 114.745C192.295 114.977 192.234 115.257 192.231 115.585ZM202.262 123.023C201.576 123.023 200.988 122.928 200.497 122.739C200.01 122.554 199.622 122.3 199.334 121.979C199.045 121.657 198.858 121.296 198.772 120.895L200.731 120.631C200.79 120.784 200.885 120.926 201.014 121.059C201.143 121.192 201.314 121.298 201.526 121.377C201.742 121.46 202.004 121.501 202.312 121.501C202.772 121.501 203.152 121.389 203.45 121.163C203.752 120.941 203.903 120.568 203.903 120.045V118.648H203.813C203.72 118.86 203.581 119.06 203.396 119.249C203.21 119.438 202.971 119.592 202.68 119.712C202.388 119.831 202.04 119.891 201.636 119.891C201.062 119.891 200.54 119.758 200.07 119.493C199.602 119.224 199.229 118.815 198.951 118.265C198.676 117.711 198.538 117.012 198.538 116.167C198.538 115.302 198.679 114.579 198.961 113.999C199.243 113.419 199.617 112.985 200.085 112.697C200.555 112.408 201.071 112.264 201.631 112.264C202.058 112.264 202.416 112.337 202.705 112.483C202.993 112.625 203.225 112.804 203.401 113.02C203.58 113.232 203.717 113.441 203.813 113.646H203.893V112.364H205.996V120.075C205.996 120.724 205.837 121.268 205.518 121.705C205.2 122.143 204.759 122.471 204.196 122.69C203.636 122.912 202.991 123.023 202.262 123.023ZM202.307 118.3C202.648 118.3 202.937 118.215 203.172 118.046C203.411 117.874 203.593 117.629 203.719 117.31C203.848 116.989 203.913 116.604 203.913 116.157C203.913 115.71 203.85 115.322 203.724 114.994C203.598 114.662 203.415 114.405 203.177 114.223C202.938 114.041 202.648 113.95 202.307 113.95C201.959 113.95 201.665 114.044 201.427 114.233C201.188 114.419 201.008 114.677 200.885 115.009C200.762 115.34 200.701 115.723 200.701 116.157C200.701 116.598 200.762 116.979 200.885 117.3C201.011 117.619 201.192 117.866 201.427 118.041C201.665 118.214 201.959 118.3 202.307 118.3Z" fill="white"/>
<path fill-rule="evenodd" clip-rule="evenodd" d="M149.843 69.3002L211.409 32.6807L145.944 3L147.182 24.0461C115.909 35.5381 104.441 47.6437 94 76.2271H105.26C115.092 64.6515 124.098 58.9421 148.782 51.2615L149.843 69.3002Z" fill="#4F7CFE"/>
<path d="M211.409 32.6807L212.176 33.9698L214.646 32.501L212.029 31.3145L211.409 32.6807ZM149.843 69.3002L148.346 69.3883L148.491 71.8501L150.61 70.5894L149.843 69.3002ZM145.944 3L146.563 1.63385L144.3 0.608011L144.446 3.08807L145.944 3ZM147.182 24.0461L147.699 25.454L148.744 25.0698L148.679 23.958L147.182 24.0461ZM94 76.2271L92.5911 75.7124L91.8551 77.7271H94V76.2271ZM105.26 76.2271V77.7271H105.954L106.403 77.1982L105.26 76.2271ZM148.782 51.2615L150.28 51.1734L150.167 49.2596L148.337 49.8292L148.782 51.2615ZM210.643 31.3915L149.076 68.011L150.61 70.5894L212.176 33.9698L210.643 31.3915ZM145.324 4.36615L210.79 34.0468L212.029 31.3145L146.563 1.63385L145.324 4.36615ZM148.679 23.958L147.441 2.91193L144.446 3.08807L145.684 24.1342L148.679 23.958ZM95.4089 76.7418C100.595 62.5441 105.979 52.6051 113.837 44.791C121.699 36.9728 132.156 31.166 147.699 25.454L146.664 22.6381C130.935 28.4182 120.022 34.4102 111.722 42.6637C103.417 50.9212 97.8461 61.3267 92.5911 75.7124L95.4089 76.7418ZM105.26 74.7271H94V77.7271H105.26V74.7271ZM148.337 49.8292C135.959 53.6807 127.408 57.0681 120.695 60.9884C113.949 64.928 109.114 69.3728 104.117 75.256L106.403 77.1982C111.238 71.5058 115.822 67.3082 122.208 63.579C128.627 59.8305 136.922 56.5229 149.228 52.6937L148.337 49.8292ZM151.341 69.2122L150.28 51.1734L147.285 51.3496L148.346 69.3883L151.341 69.2122Z" fill="white"/>
<rect x="88" y="74" width="23" height="4" fill="#4F7CFE"/>
</svg>
